
<svg width="200" height="200" viewBox="0 0 200 200" xmlns="http://www.w3.org/2000/svg">
  <defs>
    <pattern id="batik" x="0" y="0" width="50" height="50" patternUnits="userSpaceOnUse">
      <path d="M25,0 C25,25 50,25 50,50 C25,50 25,75 0,75 C0,50 -25,50 -25,25 C0,25 0,0 25,0" fill="none" stroke="#8B5CF6" stroke-width="0.5" opacity="0.3" />
      <path d="M25,0 C25,25 50,25 50,50 C25,50 25,75 0,75 C0,50 -25,50 -25,25 C0,25 0,0 25,0" fill="none" stroke="#F6B05C" stroke-width="0.5" opacity="0.3" transform="rotate(45 25 37.5)" />
    </pattern>
  </defs>
  <rect width="100%" height="100%" fill="url(#batik)" />
</svg>
